<svg style="position: absolute; width: 0; height: 0; overflow: hidden;" version="1.1" xmlns="http://www.w3.org/2000/svg" xmlns:xlink="http://www.w3.org/1999/xlink">
<defs>
<symbol id="icon-plus" viewBox="0 0 32 32">
<title>plus</title>
<path d="M31 12h-11v-11c0-0.552-0.448-1-1-1h-6c-0.552 0-1 0.448-1 1v11h-11c-0.552 0-1 0.448-1 1v6c0 0.552 0.448 1 1 1h11v11c0 0.552 0.448 1 1 1h6c0.552 0 1-0.448 1-1v-11h11c0.552 0 1-0.448 1-1v-6c0-0.552-0.448-1-1-1z"></path>
</symbol>
<symbol id="icon-minus" viewBox="0 0 32 32">
<title>minus</title>
<path d="M0 13v6c0 0.552 0.448 1 1 1h30c0.552 0 1-0.448 1-1v-6c0-0.552-0.448-1-1-1h-30c-0.552 0-1 0.448-1 1z"></path>
</symbol>
<symbol id="icon-next" viewBox="0 0 44 32">
<title>next</title>
<path d="M17.058 23c0-0.278 0.116-0.555 0.341-0.753l7.14-6.247-7.14-6.247c-0.416-0.364-0.458-0.995-0.094-1.411s0.995-0.458 1.411-0.094l8 7c0.217 0.19 0.341 0.464 0.341 0.753s-0.125 0.563-0.341 0.753l-8 7c-0.416 0.364-1.047 0.322-1.411-0.094-0.166-0.19-0.247-0.424-0.247-0.658z"></path>
</symbol>
</defs>
</svg>
